<svg xmlns="http://www.w3.org/2000/svg" viewBox="0 0 360 96" fill="none" stroke="currentColor" stroke-width="2" stroke-linecap="round" stroke-linejoin="round">
  <title>Photobooth</title>
  <!-- icon -->
  <g transform="translate(8 16)">
    <path d="M23 16 L26 10 H38 L41 16"/>
    <rect x="6" y="16" width="52" height="40" rx="5"/>
    <circle cx="32" cy="38" r="13"/>
    <circle cx="32" cy="38" r="9"/>
    <path d="M32 43 C27.5 39.8 27.5 35.6 30.2 35.2 C31.2 35.05 31.8 35.6 32 36.3 C32.2 35.6 32.8 35.05 33.8 35.2 C36.5 35.6 36.5 39.8 32 43 Z" fill="currentColor" stroke="none"/>
    <circle cx="50" cy="22.5" r="1.6" fill="currentColor" stroke="none"/>
  </g>
  <!-- wordmark -->
  <text x="92" y="58" font-family="'Playfair Display', 'Cormorant Garamond', Georgia, serif" font-style="italic" font-weight="500" font-size="38" fill="currentColor" stroke="none" letter-spacing="1.5">Photobooth</text>
  <!-- divider flourish under wordmark -->
  <path d="M96 72 H336" stroke-width="0.75"/>
  <path d="M210 72 q6 -6 12 0 q-6 6 -12 0 z" fill="currentColor" stroke="none"/>
</svg>
